<svg version="1.1" xmlns="http://www.w3.org/2000/svg">
    <defs>
        <svg version="1.1" id="university" xmlns="http://www.w3.org/2000/svg" xmlns:xlink="http://www.w3.org/1999/xlink" x="0px" y="0px"
	 viewBox="0 0 472.235 472.235" style="enable-background:new 0 0 472.235 472.235;" xml:space="preserve">

		<path d="M402.994,147.887l-22.859-38.099V64.004c-0.001-3.299-2.027-6.258-5.102-7.453l-144-56c-1.862-0.734-3.934-0.734-5.797,0
			l-144,56c-4.116,1.598-6.158,6.23-4.56,10.346c0.812,2.093,2.467,3.747,4.56,4.56l74.898,29.127v68.732
			C77.221,209.08,45.485,305.287,85.25,384.2c39.765,78.913,135.972,110.649,214.885,70.885S410.783,319.113,371.019,240.2
			c-15.425-30.611-40.273-55.459-70.885-70.885v-68.732l64-24.889v34.093l-22.859,38.099c-2.274,3.787-1.048,8.701,2.739,10.976
			c1.244,0.747,2.669,1.142,4.12,1.142h48c4.418,0.001,8-3.579,8.001-7.997C404.136,150.556,403.741,149.131,402.994,147.887z
			 M184.515,174.799L184.515,174.799c-11.662,14.628-20.468,31.32-25.957,49.205h-44.151
			C132.261,200.889,156.706,183.732,184.515,174.799z M103.619,240.004h50.209c-5.143,20.959-7.947,42.423-8.36,64H84.54
			C85.752,281.462,92.291,259.529,103.619,240.004z M84.54,320.004h60.929c0.413,21.577,3.217,43.041,8.36,64h-50.209
			C92.291,364.478,85.752,342.545,84.54,320.004z M114.407,400.004h44.151c5.489,17.885,14.295,34.576,25.958,49.205
			C156.707,440.276,132.261,423.119,114.407,400.004z M220.134,455.107c-17.854-4.223-33.803-25.143-44.58-55.104h44.58V455.107z
			 M220.134,384.004h-49.568c-5.547-20.9-8.603-42.382-9.104-64h58.672V384.004z M220.134,304.004h-58.672
			c0.501-21.618,3.557-43.1,9.104-64h49.568V304.004z M220.134,224.004h-44.58c10.777-29.961,26.725-50.881,44.58-55.104V224.004z
			 M172.134,162.316v-55.51l53.102,20.65c1.863,0.729,3.933,0.729,5.797,0l53.102-20.65v55.51
			C248.067,148.566,208.202,148.566,172.134,162.316z M236.134,304.004v-64h46.83c5.495,20.907,8.513,42.388,8.993,64H236.134z
			 M291.957,320.004c-0.48,21.612-3.498,43.093-8.993,64h-46.83v-64H291.957z M236.134,224.004v-54.256
			c16.863,5.725,31.669,25.933,41.819,54.256H236.134z M236.134,454.26v-54.256h41.819
			C267.803,428.328,252.998,448.535,236.134,454.26z M268.215,450.213L268.215,450.213c12.137-14.816,21.237-31.877,26.78-50.209
			h46.867C323.229,424.095,297.449,441.671,268.215,450.213z M352.65,384.004h-52.982c5.101-20.965,7.88-42.427,8.286-64h63.776
			C370.517,342.545,363.978,364.478,352.65,384.004z M371.729,304.004h-63.776c-0.406-21.573-3.185-43.035-8.286-64h52.982
			C363.978,259.529,370.517,281.462,371.729,304.004z M341.862,224.004h-46.867c-5.543-18.332-14.643-35.393-26.78-50.209
			C297.449,182.337,323.229,199.913,341.862,224.004z M228.134,111.418l-121.93-47.414l121.93-47.414l121.93,47.414L228.134,111.418
			z M362.263,144.004l9.871-16.453l9.871,16.453H362.263z"/>

        </svg>

        <svg version="1.1" id="uni_cap" xmlns="http://www.w3.org/2000/svg" xmlns:xlink="http://www.w3.org/1999/xlink" x="0px" y="0px"
	 viewBox="0 0 512 512" style="enable-background:new 0 0 512 512;" xml:space="preserve">
			<path d="M360.465,443.988c-4.574-1.161-9.207,1.638-10.342,6.204l-8.533,34.133c-1.152,4.582,1.638,9.207,6.212,10.351
				c0.691,0.179,1.391,0.256,2.074,0.256c3.823,0,7.296-2.586,8.269-6.46l8.533-34.133
				C367.821,449.765,365.039,445.132,360.465,443.988z"/>
			<path d="M256,273.066c1.109,0,2.219-0.213,3.26-0.648l93.867-38.844c4.352-1.801,6.417-6.793,4.617-11.145
				c-1.801-4.361-6.81-6.409-11.153-4.625L256,255.299L17.067,156.432v-2.833c0-4.71-3.823-8.533-8.533-8.533S0,148.889,0,153.599
				v8.533c0,3.456,2.082,6.571,5.274,7.885l247.467,102.4C253.781,272.852,254.891,273.066,256,273.066z"/>
			<path d="M357.513,360.49c-2.082-4.224-7.185-5.965-11.426-3.874c-16.205,8.013-43.273,17.331-81.553,18.603v-76.553
				c0-4.71-3.823-8.533-8.533-8.533s-8.533,3.823-8.533,8.533v76.476c-105.958-3.379-140.151-67.567-145.067-78.251v-57.958
				c0-4.71-3.823-8.533-8.533-8.533c-4.71,0-8.533,3.823-8.533,8.533v59.733c0,1.084,0.205,2.159,0.606,3.174
				c1.485,3.695,37.803,90.692,170.061,90.692c46.225,0,78.618-11.213,97.647-20.617
				C357.879,369.825,359.612,364.714,357.513,360.49z"/>
			<path d="M384,452.266c-4.719,0-8.533,3.823-8.533,8.533v25.6c0,4.71,3.814,8.533,8.533,8.533c4.719,0,8.533-3.823,8.533-8.533
				v-25.6C392.533,456.089,388.719,452.266,384,452.266z"/>
			<path d="M503.467,145.066c-4.719,0-8.533,3.823-8.533,8.533v2.816l-102.4,42.146v-15.42l114.193-47.258
				c3.191-1.314,5.274-4.429,5.274-7.885c0-3.456-2.082-6.562-5.265-7.885L259.26,17.714c-2.091-0.862-4.429-0.862-6.519,0
				L5.274,120.114C2.082,121.437,0,124.543,0,127.999c0,3.456,2.082,6.571,5.274,7.885l247.467,102.4
				c1.041,0.435,2.15,0.649,3.26,0.649s2.219-0.213,3.26-0.649l89.481-37.026c4.361-1.792,6.426-6.784,4.625-11.145
				c-1.801-4.352-6.793-6.409-11.145-4.617L256,221.166L30.848,127.999L256,34.832l225.152,93.167l-97.971,40.542l-93.841-35.038
				c0.495-1.775,0.794-3.601,0.794-5.504c0-14.353-14.993-25.6-34.133-25.6s-34.133,11.247-34.133,25.6
				c0,14.353,14.993,25.6,34.133,25.6c8.542,0,16.162-2.33,22.084-6.084l97.382,36.361v27.341v0.009v182.878
				c-9.907,3.541-17.067,12.919-17.067,24.03c0,14.114,11.486,25.6,25.6,25.6s25.6-11.486,25.6-25.6
				c0-11.11-7.159-20.488-17.067-24.03v-48.435c24.499-18.492,33.28-43.119,33.664-44.211c0.307-0.896,0.469-1.843,0.469-2.79
				v-59.733c0-4.71-3.814-8.533-8.533-8.533s-8.533,3.823-8.533,8.533v58.155c-1.476,3.618-6.605,14.771-17.067,25.779V217.019
				l114.185-46.993c3.2-1.314,5.282-4.437,5.282-7.893v-8.533C512,148.889,508.186,145.066,503.467,145.066z M256,136.532
				c-10.419,0-17.067-5.052-17.067-8.533c0-3.482,6.647-8.533,17.067-8.533s17.067,5.052,17.067,8.533
				C273.067,131.481,266.419,136.532,256,136.532z M384,426.666c-4.71,0-8.533-3.831-8.533-8.533c0-4.702,3.823-8.533,8.533-8.533
				s8.533,3.831,8.533,8.533C392.533,422.834,388.71,426.666,384,426.666z"/>
			<path d="M417.877,450.192c-1.143-4.565-5.786-7.356-10.342-6.204c-4.574,1.143-7.356,5.777-6.212,10.351l8.533,34.133
				c0.973,3.874,4.446,6.46,8.269,6.46c0.683,0,1.382-0.077,2.074-0.256c4.574-1.143,7.356-5.769,6.212-10.351L417.877,450.192z"/>
	</svg>
		 <svg version="1.1" id="website" xmlns="http://www.w3.org/2000/svg" xmlns:xlink="http://www.w3.org/1999/xlink" x="0px" y="0px"
	 viewBox="0 0 937.5 937.5" style="enable-background:new 0 0 937.5 937.5;" xml:space="preserve">
			<path d="M 875 125 L 875 156.25 C 892.261719 156.25 906.25 170.238281 906.25 187.5 L 906.25 656.25 L 31.25 656.25 L 31.25 187.5 C 31.25 170.238281 45.238281 156.25 62.5 156.25 L 62.5 125 C 27.984375 125 0 152.984375 0 187.5 L 0 718.75 C 0 753.265625 27.984375 781.25 62.5 781.25 L 369.625 781.25 L 332.125 906.25 L 296.875 906.25 L 296.875 937.5 L 640.625 937.5 L 640.625 906.25 L 605.375 906.25 L 567.875 781.25 L 875 781.25 C 909.515625 781.25 937.5 753.265625 937.5 718.75 L 937.5 187.5 C 937.5 152.984375 909.515625 125 875 125 Z M 572.75 906.25 L 364.75 906.25 L 402.25 781.25 L 535.25 781.25 Z M 906.25 718.75 C 906.25 736.011719 892.261719 750 875 750 L 62.5 750 C 45.238281 750 31.25 736.011719 31.25 718.75 L 31.25 687.5 L 906.25 687.5 Z M 906.25 718.75 " style=" stroke:none;fill-rule:nonzero;fill:rgb(0%,0%,0%);fill-opacity:1;" />
			<path d="M 843.75 625 L 843.75 62.5 C 843.75 27.984375 815.765625 0 781.25 0 L 156.25 0 C 121.734375 0 93.75 27.984375 93.75 62.5 L 93.75 625 L 125 625 L 125 62.5 C 125 45.238281 138.988281 31.25 156.25 31.25 L 781.25 31.25 C 798.511719 31.25 812.5 45.238281 812.5 62.5 L 812.5 625 Z M 843.75 625 " style=" stroke:none;fill-rule:nonzero;fill:rgb(0%,0%,0%);fill-opacity:1;" />
			<path d="M 156.25 62.5 L 187.5 62.5 L 187.5 93.75 L 156.25 93.75 Z M 156.25 62.5 " style=" stroke:none;fill-rule:nonzero;fill:rgb(0%,0%,0%);fill-opacity:1;" />
			<path d="M 218.75 62.5 L 250 62.5 L 250 93.75 L 218.75 93.75 Z M 218.75 62.5 " style=" stroke:none;fill-rule:nonzero;fill:rgb(0%,0%,0%);fill-opacity:1;" />
			<path d="M 281.25 62.5 L 312.5 62.5 L 312.5 93.75 L 281.25 93.75 Z M 281.25 62.5 " style=" stroke:none;fill-rule:nonzero;fill:rgb(0%,0%,0%);fill-opacity:1;" />
			<path d="M 156.25 125 L 781.25 125 L 781.25 156.25 L 156.25 156.25 Z M 156.25 125 " style=" stroke:none;fill-rule:nonzero;fill:rgb(0%,0%,0%);fill-opacity:1;" />
			<path d="M 453.125 203.125 C 453.125 194.492188 446.132812 187.5 437.5 187.5 L 171.875 187.5 C 163.242188 187.5 156.25 194.492188 156.25 203.125 L 156.25 421.875 C 156.25 430.507812 163.242188 437.5 171.875 437.5 L 437.5 437.5 C 446.132812 437.5 453.125 430.507812 453.125 421.875 Z M 250 406.25 L 187.5 406.25 L 187.5 296.875 L 250 296.875 Z M 421.875 406.25 L 281.25 406.25 L 281.25 296.875 L 421.875 296.875 Z M 421.875 265.625 L 187.5 265.625 L 187.5 218.75 L 421.875 218.75 Z M 421.875 265.625 " style=" stroke:none;fill-rule:nonzero;fill:rgb(0%,0%,0%);fill-opacity:1;" />
			<path d="M 781.25 203.125 C 781.25 194.492188 774.257812 187.5 765.625 187.5 L 500 187.5 C 491.367188 187.5 484.375 194.492188 484.375 203.125 L 484.375 421.875 C 484.375 430.507812 491.367188 437.5 500 437.5 L 765.625 437.5 C 774.257812 437.5 781.25 430.507812 781.25 421.875 Z M 656.25 406.25 L 515.625 406.25 L 515.625 296.875 L 656.25 296.875 Z M 750 406.25 L 687.5 406.25 L 687.5 296.875 L 750 296.875 Z M 750 265.625 L 515.625 265.625 L 515.625 218.75 L 750 218.75 Z M 750 265.625 " style=" stroke:none;fill-rule:nonzero;fill:rgb(0%,0%,0%);fill-opacity:1;" />
			<path d="M 453.125 625 L 453.125 484.375 C 453.125 475.742188 446.132812 468.75 437.5 468.75 L 171.875 468.75 C 163.242188 468.75 156.25 475.742188 156.25 484.375 L 156.25 625 L 187.5 625 L 187.5 578.125 L 421.875 578.125 L 421.875 625 Z M 187.5 546.875 L 187.5 500 L 421.875 500 L 421.875 546.875 Z M 187.5 546.875 " style=" stroke:none;fill-rule:nonzero;fill:rgb(0%,0%,0%);fill-opacity:1;" />
			<path d="M 781.25 625 L 781.25 484.375 C 781.25 475.742188 774.257812 468.75 765.625 468.75 L 500 468.75 C 491.367188 468.75 484.375 475.742188 484.375 484.375 L 484.375 625 L 515.625 625 L 515.625 500 L 578.125 500 L 578.125 625 L 609.375 625 L 609.375 500 L 750 500 L 750 625 Z M 781.25 625 " style=" stroke:none;fill-rule:nonzero;fill:rgb(0%,0%,0%);fill-opacity:1;" />
		</svg>
		<svg xmlns="http://www.w3.org/2000/svg" id="programming"  version="1.1" viewBox="0 0 937.5 937.5" style="enable-background:new 0 0 512 512;">
			<g id="surface1">
				<path d="M 875 125 L 875 156.25 C 892.261719 156.25 906.25 170.238281 906.25 187.5 L 906.25 656.25 L 31.25 656.25 L 31.25 187.5 C 31.25 170.238281 45.238281 156.25 62.5 156.25 L 62.5 125 C 27.984375 125 0 152.984375 0 187.5 L 0 718.75 C 0 753.265625 27.984375 781.25 62.5 781.25 L 369.625 781.25 L 332.125 906.25 L 296.875 906.25 L 296.875 937.5 L 640.625 937.5 L 640.625 906.25 L 605.375 906.25 L 567.875 781.25 L 875 781.25 C 909.515625 781.25 937.5 753.265625 937.5 718.75 L 937.5 187.5 C 937.5 152.984375 909.515625 125 875 125 Z M 572.75 906.25 L 364.75 906.25 L 402.25 781.25 L 535.25 781.25 Z M 906.25 718.75 C 906.25 736.011719 892.261719 750 875 750 L 62.5 750 C 45.238281 750 31.25 736.011719 31.25 718.75 L 31.25 687.5 L 906.25 687.5 Z M 906.25 718.75 " style=" stroke:none;fill-rule:nonzero;fill:rgb(0%,0%,0%);fill-opacity:1;" />
				<path d="M 156.25 625 L 781.25 625 C 815.765625 625 843.75 597.015625 843.75 562.5 L 843.75 62.5 C 843.75 27.984375 815.765625 0 781.25 0 L 156.25 0 C 121.734375 0 93.75 27.984375 93.75 62.5 L 93.75 562.5 C 93.75 597.015625 121.734375 625 156.25 625 Z M 125 62.5 C 125 45.238281 138.988281 31.25 156.25 31.25 L 781.25 31.25 C 798.511719 31.25 812.5 45.238281 812.5 62.5 L 812.5 562.5 C 812.5 579.761719 798.511719 593.75 781.25 593.75 L 156.25 593.75 C 138.988281 593.75 125 579.761719 125 562.5 Z M 125 62.5 " style=" stroke:none;fill-rule:nonzero;fill:rgb(0%,0%,0%);fill-opacity:1;" />
				<path d="M 156.25 125 L 781.25 125 L 781.25 156.25 L 156.25 156.25 Z M 156.25 125 " style=" stroke:none;fill-rule:nonzero;fill:rgb(0%,0%,0%);fill-opacity:1;" />
				<path d="M 156.25 203.125 L 296.875 203.125 L 296.875 234.375 L 156.25 234.375 Z M 156.25 203.125 " style=" stroke:none;fill-rule:nonzero;fill:rgb(0%,0%,0%);fill-opacity:1;" />
				<path d="M 156.25 265.625 L 265.625 265.625 L 265.625 296.875 L 156.25 296.875 Z M 156.25 265.625 " style=" stroke:none;fill-rule:nonzero;fill:rgb(0%,0%,0%);fill-opacity:1;" />
				<path d="M 156.25 328.125 L 250 328.125 L 250 359.375 L 156.25 359.375 Z M 156.25 328.125 " style=" stroke:none;fill-rule:nonzero;fill:rgb(0%,0%,0%);fill-opacity:1;" />
				<path d="M 156.25 390.625 L 250 390.625 L 250 421.875 L 156.25 421.875 Z M 156.25 390.625 " style=" stroke:none;fill-rule:nonzero;fill:rgb(0%,0%,0%);fill-opacity:1;" />
				<path d="M 156.25 453.125 L 250 453.125 L 250 484.375 L 156.25 484.375 Z M 156.25 453.125 " style=" stroke:none;fill-rule:nonzero;fill:rgb(0%,0%,0%);fill-opacity:1;" />
				<path d="M 156.25 515.625 L 296.875 515.625 L 296.875 546.875 L 156.25 546.875 Z M 156.25 515.625 " style=" stroke:none;fill-rule:nonzero;fill:rgb(0%,0%,0%);fill-opacity:1;" />
				<path d="M 640.625 203.125 L 781.25 203.125 L 781.25 234.375 L 640.625 234.375 Z M 640.625 203.125 " style=" stroke:none;fill-rule:nonzero;fill:rgb(0%,0%,0%);fill-opacity:1;" />
				<path d="M 671.875 265.625 L 781.25 265.625 L 781.25 296.875 L 671.875 296.875 Z M 671.875 265.625 " style=" stroke:none;fill-rule:nonzero;fill:rgb(0%,0%,0%);fill-opacity:1;" />
				<path d="M 687.5 328.125 L 781.25 328.125 L 781.25 359.375 L 687.5 359.375 Z M 687.5 328.125 " style=" stroke:none;fill-rule:nonzero;fill:rgb(0%,0%,0%);fill-opacity:1;" />
				<path d="M 687.5 390.625 L 781.25 390.625 L 781.25 421.875 L 687.5 421.875 Z M 687.5 390.625 " style=" stroke:none;fill-rule:nonzero;fill:rgb(0%,0%,0%);fill-opacity:1;" />
				<path d="M 687.5 453.125 L 781.25 453.125 L 781.25 484.375 L 687.5 484.375 Z M 687.5 453.125 " style=" stroke:none;fill-rule:nonzero;fill:rgb(0%,0%,0%);fill-opacity:1;" />
				<path d="M 640.625 515.625 L 781.25 515.625 L 781.25 546.875 L 640.625 546.875 Z M 640.625 515.625 " style=" stroke:none;fill-rule:nonzero;fill:rgb(0%,0%,0%);fill-opacity:1;" />
				<path d="M 156.25 62.5 L 187.5 62.5 L 187.5 93.75 L 156.25 93.75 Z M 156.25 62.5 " style=" stroke:none;fill-rule:nonzero;fill:rgb(0%,0%,0%);fill-opacity:1;" />
				<path d="M 218.75 62.5 L 250 62.5 L 250 93.75 L 218.75 93.75 Z M 218.75 62.5 " style=" stroke:none;fill-rule:nonzero;fill:rgb(0%,0%,0%);fill-opacity:1;" />
				<path d="M 281.25 62.5 L 312.5 62.5 L 312.5 93.75 L 281.25 93.75 Z M 281.25 62.5 " style=" stroke:none;fill-rule:nonzero;fill:rgb(0%,0%,0%);fill-opacity:1;" />
				<path d="M 595.566406 435.515625 C 597.679688 431.0625 599.5625 426.515625 601.21875 421.875 L 640.625 421.875 C 649.257812 421.875 656.25 414.882812 656.25 406.25 L 656.25 343.75 C 656.25 335.117188 649.257812 328.125 640.625 328.125 L 601.21875 328.125 C 599.5625 323.484375 597.679688 318.9375 595.566406 314.484375 L 623.4375 286.609375 C 629.539062 280.511719 629.539062 270.617188 623.4375 264.523438 L 579.226562 220.3125 C 573.132812 214.210938 563.238281 214.210938 557.140625 220.3125 L 529.265625 248.167969 C 524.8125 246.0625 520.265625 244.179688 515.625 242.53125 L 515.625 203.125 C 515.625 194.492188 508.632812 187.5 500 187.5 L 437.5 187.5 C 428.867188 187.5 421.875 194.492188 421.875 203.125 L 421.875 242.53125 C 417.234375 244.1875 412.6875 246.070312 408.234375 248.183594 L 380.359375 220.3125 C 374.261719 214.210938 364.367188 214.210938 358.273438 220.3125 L 314.0625 264.523438 C 307.960938 270.617188 307.960938 280.511719 314.0625 286.609375 L 341.917969 314.484375 C 339.804688 318.9375 337.921875 323.484375 336.269531 328.125 L 296.875 328.125 C 288.242188 328.125 281.25 335.117188 281.25 343.75 L 281.25 406.25 C 281.25 414.882812 288.242188 421.875 296.875 421.875 L 336.28125 421.875 C 337.9375 426.515625 339.820312 431.0625 341.933594 435.515625 L 314.0625 463.390625 C 307.960938 469.488281 307.960938 479.382812 314.0625 485.476562 L 358.273438 529.6875 C 364.367188 535.789062 374.261719 535.789062 380.359375 529.6875 L 408.234375 501.832031 C 412.6875 503.945312 417.234375 505.828125 421.875 507.480469 L 421.875 546.875 C 421.875 555.507812 428.867188 562.5 437.5 562.5 L 500 562.5 C 508.632812 562.5 515.625 555.507812 515.625 546.875 L 515.625 507.46875 C 520.265625 505.8125 524.8125 503.929688 529.265625 501.816406 L 557.140625 529.6875 C 563.238281 535.789062 573.132812 535.789062 579.226562 529.6875 L 623.4375 485.476562 C 629.539062 479.382812 629.539062 469.488281 623.4375 463.390625 Z M 568.183594 496.453125 L 543.1875 471.445312 C 538.144531 466.40625 530.328125 465.421875 524.179688 469.046875 C 515.40625 474.21875 505.933594 478.132812 496.0625 480.6875 C 489.164062 482.46875 484.34375 488.679688 484.34375 495.8125 L 484.34375 531.25 L 453.125 531.25 L 453.125 495.902344 C 453.125 488.78125 448.300781 482.558594 441.40625 480.78125 C 431.53125 478.234375 422.066406 474.3125 413.28125 469.140625 C 407.140625 465.515625 399.320312 466.5 394.28125 471.554688 L 369.277344 496.542969 L 347.191406 474.457031 L 372.1875 449.457031 C 377.234375 444.410156 378.222656 436.59375 374.601562 430.449219 C 369.421875 421.671875 365.503906 412.203125 362.949219 402.335938 C 361.175781 395.433594 354.953125 390.617188 347.832031 390.617188 L 312.5 390.617188 L 312.5 359.375 L 347.847656 359.375 C 354.96875 359.375 361.191406 354.550781 362.96875 347.65625 C 365.515625 337.78125 369.4375 328.316406 374.609375 319.53125 C 378.234375 313.390625 377.25 305.570312 372.195312 300.53125 L 347.207031 275.527344 L 369.292969 253.441406 L 394.292969 278.4375 C 399.339844 283.484375 407.15625 284.472656 413.300781 280.851562 C 422.078125 275.671875 431.546875 271.753906 441.414062 269.199219 C 448.316406 267.425781 453.132812 261.203125 453.132812 254.082031 L 453.132812 218.75 L 484.382812 218.75 L 484.382812 254.097656 C 484.382812 261.21875 489.210938 267.441406 496.101562 269.21875 C 505.980469 271.765625 515.449219 275.6875 524.226562 280.859375 C 530.371094 284.484375 538.195312 283.5 543.238281 278.445312 L 568.238281 253.457031 L 590.328125 275.542969 L 565.332031 300.542969 C 560.292969 305.589844 559.296875 313.40625 562.921875 319.550781 C 568.089844 328.328125 572.015625 337.796875 574.5625 347.664062 C 576.34375 354.566406 582.570312 359.382812 589.691406 359.382812 L 625 359.382812 L 625 390.632812 L 589.652344 390.632812 C 582.53125 390.632812 576.308594 395.460938 574.53125 402.351562 C 571.984375 412.230469 568.0625 421.699219 562.890625 430.476562 C 559.265625 436.621094 560.25 444.445312 565.304688 449.488281 L 590.292969 474.488281 Z M 568.183594 496.453125 " style=" stroke:none;fill-rule:nonzero;fill:rgb(0%,0%,0%);fill-opacity:1;" />
				<path d="M 468.75 296.875 C 425.605469 296.875 390.625 331.855469 390.625 375 C 390.625 418.144531 425.605469 453.125 468.75 453.125 C 511.894531 453.125 546.875 418.144531 546.875 375 C 546.820312 331.875 511.875 296.929688 468.75 296.875 Z M 468.75 421.875 C 442.867188 421.875 421.875 400.882812 421.875 375 C 421.875 349.117188 442.867188 328.125 468.75 328.125 C 494.632812 328.125 515.625 349.117188 515.625 375 C 515.625 400.882812 494.632812 421.875 468.75 421.875 Z M 468.75 421.875 " style=" stroke:none;fill-rule:nonzero;fill:rgb(0%,0%,0%);fill-opacity:1;" />
			</g>
		</svg>
    </defs>
</svg>