<svg version="1.1" xmlns="http://www.w3.org/2000/svg">
    <defs>
        <svg version="1.1" id="university" xmlns="http://www.w3.org/2000/svg" xmlns:xlink="http://www.w3.org/1999/xlink" x="0px" y="0px"
	 viewBox="0 0 472.235 472.235" style="enable-background:new 0 0 472.235 472.235;" xml:space="preserve">

		<path d="M402.994,147.887l-22.859-38.099V64.004c-0.001-3.299-2.027-6.258-5.102-7.453l-144-56c-1.862-0.734-3.934-0.734-5.797,0
			l-144,56c-4.116,1.598-6.158,6.23-4.56,10.346c0.812,2.093,2.467,3.747,4.56,4.56l74.898,29.127v68.732
			C77.221,209.08,45.485,305.287,85.25,384.2c39.765,78.913,135.972,110.649,214.885,70.885S410.783,319.113,371.019,240.2
			c-15.425-30.611-40.273-55.459-70.885-70.885v-68.732l64-24.889v34.093l-22.859,38.099c-2.274,3.787-1.048,8.701,2.739,10.976
			c1.244,0.747,2.669,1.142,4.12,1.142h48c4.418,0.001,8-3.579,8.001-7.997C404.136,150.556,403.741,149.131,402.994,147.887z
			 M184.515,174.799L184.515,174.799c-11.662,14.628-20.468,31.32-25.957,49.205h-44.151
			C132.261,200.889,156.706,183.732,184.515,174.799z M103.619,240.004h50.209c-5.143,20.959-7.947,42.423-8.36,64H84.54
			C85.752,281.462,92.291,259.529,103.619,240.004z M84.54,320.004h60.929c0.413,21.577,3.217,43.041,8.36,64h-50.209
			C92.291,364.478,85.752,342.545,84.54,320.004z M114.407,400.004h44.151c5.489,17.885,14.295,34.576,25.958,49.205
			C156.707,440.276,132.261,423.119,114.407,400.004z M220.134,455.107c-17.854-4.223-33.803-25.143-44.58-55.104h44.58V455.107z
			 M220.134,384.004h-49.568c-5.547-20.9-8.603-42.382-9.104-64h58.672V384.004z M220.134,304.004h-58.672
			c0.501-21.618,3.557-43.1,9.104-64h49.568V304.004z M220.134,224.004h-44.58c10.777-29.961,26.725-50.881,44.58-55.104V224.004z
			 M172.134,162.316v-55.51l53.102,20.65c1.863,0.729,3.933,0.729,5.797,0l53.102-20.65v55.51
			C248.067,148.566,208.202,148.566,172.134,162.316z M236.134,304.004v-64h46.83c5.495,20.907,8.513,42.388,8.993,64H236.134z
			 M291.957,320.004c-0.48,21.612-3.498,43.093-8.993,64h-46.83v-64H291.957z M236.134,224.004v-54.256
			c16.863,5.725,31.669,25.933,41.819,54.256H236.134z M236.134,454.26v-54.256h41.819
			C267.803,428.328,252.998,448.535,236.134,454.26z M268.215,450.213L268.215,450.213c12.137-14.816,21.237-31.877,26.78-50.209
			h46.867C323.229,424.095,297.449,441.671,268.215,450.213z M352.65,384.004h-52.982c5.101-20.965,7.88-42.427,8.286-64h63.776
			C370.517,342.545,363.978,364.478,352.65,384.004z M371.729,304.004h-63.776c-0.406-21.573-3.185-43.035-8.286-64h52.982
			C363.978,259.529,370.517,281.462,371.729,304.004z M341.862,224.004h-46.867c-5.543-18.332-14.643-35.393-26.78-50.209
			C297.449,182.337,323.229,199.913,341.862,224.004z M228.134,111.418l-121.93-47.414l121.93-47.414l121.93,47.414L228.134,111.418
			z M362.263,144.004l9.871-16.453l9.871,16.453H362.263z"/>

        </svg>

        <svg version="1.1" id="uni_cap" xmlns="http://www.w3.org/2000/svg" xmlns:xlink="http://www.w3.org/1999/xlink" x="0px" y="0px"
	 viewBox="0 0 512 512" style="enable-background:new 0 0 512 512;" xml:space="preserve">
			<path d="M360.465,443.988c-4.574-1.161-9.207,1.638-10.342,6.204l-8.533,34.133c-1.152,4.582,1.638,9.207,6.212,10.351
				c0.691,0.179,1.391,0.256,2.074,0.256c3.823,0,7.296-2.586,8.269-6.46l8.533-34.133
				C367.821,449.765,365.039,445.132,360.465,443.988z"/>
			<path d="M256,273.066c1.109,0,2.219-0.213,3.26-0.648l93.867-38.844c4.352-1.801,6.417-6.793,4.617-11.145
				c-1.801-4.361-6.81-6.409-11.153-4.625L256,255.299L17.067,156.432v-2.833c0-4.71-3.823-8.533-8.533-8.533S0,148.889,0,153.599
				v8.533c0,3.456,2.082,6.571,5.274,7.885l247.467,102.4C253.781,272.852,254.891,273.066,256,273.066z"/>
			<path d="M357.513,360.49c-2.082-4.224-7.185-5.965-11.426-3.874c-16.205,8.013-43.273,17.331-81.553,18.603v-76.553
				c0-4.71-3.823-8.533-8.533-8.533s-8.533,3.823-8.533,8.533v76.476c-105.958-3.379-140.151-67.567-145.067-78.251v-57.958
				c0-4.71-3.823-8.533-8.533-8.533c-4.71,0-8.533,3.823-8.533,8.533v59.733c0,1.084,0.205,2.159,0.606,3.174
				c1.485,3.695,37.803,90.692,170.061,90.692c46.225,0,78.618-11.213,97.647-20.617
				C357.879,369.825,359.612,364.714,357.513,360.49z"/>
			<path d="M384,452.266c-4.719,0-8.533,3.823-8.533,8.533v25.6c0,4.71,3.814,8.533,8.533,8.533c4.719,0,8.533-3.823,8.533-8.533
				v-25.6C392.533,456.089,388.719,452.266,384,452.266z"/>
			<path d="M503.467,145.066c-4.719,0-8.533,3.823-8.533,8.533v2.816l-102.4,42.146v-15.42l114.193-47.258
				c3.191-1.314,5.274-4.429,5.274-7.885c0-3.456-2.082-6.562-5.265-7.885L259.26,17.714c-2.091-0.862-4.429-0.862-6.519,0
				L5.274,120.114C2.082,121.437,0,124.543,0,127.999c0,3.456,2.082,6.571,5.274,7.885l247.467,102.4
				c1.041,0.435,2.15,0.649,3.26,0.649s2.219-0.213,3.26-0.649l89.481-37.026c4.361-1.792,6.426-6.784,4.625-11.145
				c-1.801-4.352-6.793-6.409-11.145-4.617L256,221.166L30.848,127.999L256,34.832l225.152,93.167l-97.971,40.542l-93.841-35.038
				c0.495-1.775,0.794-3.601,0.794-5.504c0-14.353-14.993-25.6-34.133-25.6s-34.133,11.247-34.133,25.6
				c0,14.353,14.993,25.6,34.133,25.6c8.542,0,16.162-2.33,22.084-6.084l97.382,36.361v27.341v0.009v182.878
				c-9.907,3.541-17.067,12.919-17.067,24.03c0,14.114,11.486,25.6,25.6,25.6s25.6-11.486,25.6-25.6
				c0-11.11-7.159-20.488-17.067-24.03v-48.435c24.499-18.492,33.28-43.119,33.664-44.211c0.307-0.896,0.469-1.843,0.469-2.79
				v-59.733c0-4.71-3.814-8.533-8.533-8.533s-8.533,3.823-8.533,8.533v58.155c-1.476,3.618-6.605,14.771-17.067,25.779V217.019
				l114.185-46.993c3.2-1.314,5.282-4.437,5.282-7.893v-8.533C512,148.889,508.186,145.066,503.467,145.066z M256,136.532
				c-10.419,0-17.067-5.052-17.067-8.533c0-3.482,6.647-8.533,17.067-8.533s17.067,5.052,17.067,8.533
				C273.067,131.481,266.419,136.532,256,136.532z M384,426.666c-4.71,0-8.533-3.831-8.533-8.533c0-4.702,3.823-8.533,8.533-8.533
				s8.533,3.831,8.533,8.533C392.533,422.834,388.71,426.666,384,426.666z"/>
			<path d="M417.877,450.192c-1.143-4.565-5.786-7.356-10.342-6.204c-4.574,1.143-7.356,5.777-6.212,10.351l8.533,34.133
				c0.973,3.874,4.446,6.46,8.269,6.46c0.683,0,1.382-0.077,2.074-0.256c4.574-1.143,7.356-5.769,6.212-10.351L417.877,450.192z"/>
</svg>

    </defs>
</svg>